<svg width="517" height="302" viewBox="0 0 517 302" fill="none" xmlns="http://www.w3.org/2000/svg">
<path fill-rule="evenodd" clip-rule="evenodd" d="M328.389 298.261H3.65536C1.63706 298.261 0 296.76 0 294.909C0 293.058 1.63706 291.558 3.65536 291.558H328.389C330.407 291.558 332.044 293.058 332.044 294.909C332.044 296.76 330.407 298.261 328.389 298.261Z" fill="#FFCA00"/>
<path fill-rule="evenodd" clip-rule="evenodd" d="M512.435 298.261H351.379C349.363 298.261 347.728 296.76 347.728 294.909C347.728 293.058 349.363 291.558 351.379 291.558H512.435C514.452 291.558 516.086 293.058 516.086 294.909C516.086 296.76 514.452 298.261 512.435 298.261Z" fill="#FFCA00"/>
<path fill-rule="evenodd" clip-rule="evenodd" d="M367.138 0H342.639C325.769 0 312.094 11.9317 312.094 26.5575C312.094 38.187 320.742 48.1336 332.764 51.6932V59.0911L340.455 53.1171C341.176 53.1601 341.903 53.2666 342.639 53.2666H367.138C384.005 53.2666 397.682 41.2591 397.682 26.6333C397.682 12.0075 384.005 0 367.138 0Z" fill="white"/>
<path fill-rule="evenodd" clip-rule="evenodd" d="M306.907 104.172L316.23 90.1518L328.52 94.943V128.694C328.52 131.333 326.942 133.788 324.343 135.188C318.426 138.376 306.907 134.708 306.907 128.694V104.172Z" fill="#FFCA00"/>
<path fill-rule="evenodd" clip-rule="evenodd" d="M252.693 285.607L248.983 292.425H272.326C271.61 289.877 268.861 288.235 265.977 288.631L263.178 289.017C261.227 289.017 259.904 287.229 260.654 285.607H252.693Z" fill="white"/>
<path fill-rule="evenodd" clip-rule="evenodd" d="M280.358 285.607L276.648 292.425H299.99C299.275 289.877 296.527 288.235 293.641 288.631L290.844 289.017C288.894 289.017 287.571 287.229 288.319 285.607H280.358Z" fill="white"/>
<path fill-rule="evenodd" clip-rule="evenodd" d="M337.25 95.3741C339.481 90.353 336.86 82.7786 330.183 78.6392C323.743 74.6471 315.077 74.818 308.849 79.0605L307.822 79.7598C303.764 82.5232 301.26 86.6812 300.949 91.1729L300.563 105.649L293.939 108.791L299.544 125.758L305.147 119.512L314.097 109.819L321.433 111.732C326.003 113.148 331.031 111.082 332.715 107.101L332.74 107.038L334.144 103.721L337.25 95.3741Z" fill="#FBEFE1"/>
<path fill-rule="evenodd" clip-rule="evenodd" d="M339.018 90.4898L339.73 90.2795C340.298 81.0729 332.375 73.0864 321.669 72.0766C309.567 70.9356 298.995 79.0945 299.127 89.517C299.17 92.9793 300.256 102.273 300.256 102.273L311.631 90.1543L312.886 90.5216C321.358 93.0018 330.554 92.9905 339.018 90.4898Z" fill="#FFCA00"/>
<path fill-rule="evenodd" clip-rule="evenodd" d="M253.292 286.365L250.309 263.924C249.096 255.648 249.412 239.838 251.246 231.651L253.36 222.203L249.392 198.798C248.32 192.475 249.367 186.014 252.406 180.202L255.962 171.213H296.388L296.039 172.932C294.462 180.701 294.688 190.858 296.706 198.548L302.818 218.804C303.621 221.462 303.657 224.253 302.925 226.926L288.818 286.365H280.879L280.282 264.467C279.749 250.114 286.343 223.921 286.343 223.921L274.024 197.127L261.231 286.365H253.292Z" fill="#FA7564"/>
<path fill-rule="evenodd" clip-rule="evenodd" d="M277.31 171.213H296.188L295.83 172.932C294.207 180.701 294.44 190.858 296.515 198.548L302.8 218.804C303.626 221.462 303.663 224.253 302.91 226.926L288.403 286.365H280.24L279.626 264.466C279.078 250.114 285.858 223.921 285.858 223.921L273.19 197.127L277.31 171.213Z" fill="#FD8778"/>
<path fill-rule="evenodd" clip-rule="evenodd" d="M334.875 121.725L321.829 145.763L318.795 121.829L308.693 115.299L304.696 119.792L293.506 109.258H277.088V109.091C261.813 124.795 254.516 144.916 255.096 165.602L255.035 170.937H283.508L304.457 186.364L312.216 180.309L298.81 162.728L304.696 149.055L310.513 142.548L319.092 163.859L333.215 161.258L344.946 123.946L334.875 121.725Z" fill="#1E389D"/>
<path fill-rule="evenodd" clip-rule="evenodd" d="M345.26 123.485C346.834 122.363 348.075 120.894 348.874 119.215L350 116.842C350.46 115.163 349.696 113.401 348.104 112.478L343.238 109.648L345.277 103.517C345.576 102.615 344.939 101.678 343.926 101.534C343.214 101.432 342.513 101.758 342.18 102.346L338.169 109.398L337.773 109.975C336.983 111.129 336.38 112.385 335.986 113.699C335.492 115.345 335.328 117.061 335.504 118.761L335.767 121.283L345.26 123.485Z" fill="#FBEFE1"/>
<path fill-rule="evenodd" clip-rule="evenodd" d="M475.815 281.705H449.943V238.336H474.338L482.121 176.318C483.713 166.785 478.517 157.318 468.993 152.466C460.544 148.162 449.807 148.162 441.382 152.503L427.495 159.49V220.671L408.056 238.336H440.491V281.705H414.647C411.106 281.705 408.238 284.133 408.238 287.227C408.238 290.321 411.106 293.005 414.647 293.005C418.063 293.005 420.848 289.965 421.038 287.9H438.839C439.03 289.965 441.814 293.183 445.23 293.183C448.648 293.183 451.432 289.965 451.621 287.9H469.424C469.615 289.965 472.398 292.965 475.815 292.965C479.355 292.965 482.225 290.429 482.225 287.335C482.225 284.242 479.355 281.705 475.815 281.705Z" fill="black"/>
<path fill-rule="evenodd" clip-rule="evenodd" d="M402.618 285.607L406.327 292.425H382.985C383.7 289.877 386.448 288.235 389.333 288.631L392.132 289.017C394.082 289.017 395.405 287.229 394.657 285.607H402.618Z" fill="white"/>
<path fill-rule="evenodd" clip-rule="evenodd" d="M381.004 285.607L384.714 292.425H361.372C362.088 289.877 364.835 288.235 367.721 288.631L370.519 289.017C372.468 289.017 373.791 287.229 373.043 285.607H381.004Z" fill="white"/>
<path fill-rule="evenodd" clip-rule="evenodd" d="M383.947 287.122L397.116 237.697L422.506 226.521H437.916L450.418 209.849L419.018 212.88L385.823 224.023C382.353 225.187 379.847 227.854 379.23 231.04L369.152 287.122H383.947Z" fill="#1E389D"/>
<path fill-rule="evenodd" clip-rule="evenodd" d="M428.413 213.11L401.897 225.21C398.745 226.649 396.642 229.37 396.305 232.446L390.766 287.122H404.598L416.731 233.34L450.539 226.522C459.544 226.522 466.844 220.188 466.844 212.375V209.849L428.413 213.11Z" fill="#212293"/>
<path fill-rule="evenodd" clip-rule="evenodd" d="M427.184 153.291H453.254C460.051 153.291 466.321 156.517 469.674 161.738L486.728 184.081V218.94H474.624V188.405L465.979 180.263V212.833H419.296L423.242 171.311L404.52 186.688C400.441 190.364 393.484 189.442 390.808 184.87L374.34 156.742L382.555 152.273L397.105 173.138L413.752 158.249C417.298 155.077 422.135 153.291 427.184 153.291Z" fill="#FA7564"/>
<path fill-rule="evenodd" clip-rule="evenodd" d="M420.395 124.928C420.294 119.451 425.696 113.036 433.512 111.151C441.05 109.332 449.022 112.173 453.134 118.142L453.812 119.126C456.492 123.015 457.183 127.754 455.711 132.133L450.55 145.849L450.192 153.98L441.321 156.819L435.313 153.98L435.654 145.22L428.809 145.202C424.013 145.142 420.162 141.619 420.162 137.302V137.234L420.159 131.419L420.395 124.928Z" fill="#FBEFE1"/>
<path fill-rule="evenodd" clip-rule="evenodd" d="M443.502 146.213V132.576H420.159L420.161 136.639V136.705C420.161 140.788 424.034 144.122 428.859 144.179L435.745 144.196L435.662 146.213H443.502Z" fill="black"/>
<path fill-rule="evenodd" clip-rule="evenodd" d="M445.442 121.961C445.442 121.961 423.683 122.256 418.43 112.476C418.43 112.476 431.459 104.629 445.349 107.418C457.184 110.001 463.802 121.034 459.446 130.988C457.999 134.295 455.509 139.845 452.73 143.94V131.734L445.62 130.566L444.489 133.251H441.152L445.442 121.961Z" fill="black"/>
<path fill-rule="evenodd" clip-rule="evenodd" d="M474.624 234.849C473.668 234.849 472.895 234.106 472.895 233.189V225.913L476.353 223.486V233.189C476.353 234.106 475.579 234.849 474.624 234.849Z" fill="#FBEFE1"/>
<path fill-rule="evenodd" clip-rule="evenodd" d="M478.137 235.607C477.219 235.607 476.472 234.917 476.462 234.062L476.354 223.486H479.703L479.812 234.031C479.82 234.899 479.069 235.607 478.137 235.607Z" fill="#FBEFE1"/>
<path fill-rule="evenodd" clip-rule="evenodd" d="M483.269 234.849C482.315 234.849 481.541 234.106 481.541 233.189V223.486H484.999V233.189C484.999 234.106 484.225 234.849 483.269 234.849Z" fill="#FBEFE1"/>
<path fill-rule="evenodd" clip-rule="evenodd" d="M486.421 230.304H485.306C484.658 230.304 484.134 229.797 484.134 229.17V223.486H487.592V229.17C487.592 229.797 487.069 230.304 486.421 230.304Z" fill="#FBEFE1"/>
<path fill-rule="evenodd" clip-rule="evenodd" d="M487.592 224.477V221.234L486.207 218.393L476.638 218.183L476.485 218.311C474.197 220.227 473.169 222.904 473.169 225.735L472.895 225.758L487.592 224.477Z" fill="#FBEFE1"/>
<path fill-rule="evenodd" clip-rule="evenodd" d="M512.664 205.304H449.692H287.023V214.615H297.653L289.323 301.516H293.35L315.045 214.615H324.337L316.966 292.205H320.47L339.615 214.615H424.6L446.293 301.516H450.322L441.993 214.615H449.692H483.811L502.956 292.205H506.46L499.089 214.615H512.664V205.304Z" fill="white"/>
<path fill-rule="evenodd" clip-rule="evenodd" d="M100.606 281.707H74.7345V238.349H107.201L87.744 220.688V159.52L73.8428 152.514C65.4091 148.174 54.804 148.151 46.3466 152.454C36.8131 157.305 31.5407 166.814 33.1337 176.345L40.8531 238.349H65.2731V281.707H39.3747C35.8314 281.707 32.9587 284.135 32.9587 287.228C32.9587 290.321 35.8314 293.005 39.3747 293.005C42.7951 293.005 45.5814 289.966 45.7719 287.901H63.5925C63.7829 289.966 66.5705 293.183 69.9896 293.183C73.4099 293.183 76.1975 289.966 76.3867 287.901H94.2085C94.3977 289.966 97.1853 292.965 100.606 292.965C104.149 292.965 107.022 290.43 107.022 287.337C107.022 284.244 104.149 281.707 100.606 281.707Z" fill="black"/>
<path fill-rule="evenodd" clip-rule="evenodd" d="M112.641 285.607L108.931 292.425H132.273C131.558 289.877 128.809 288.235 125.924 288.631L123.126 289.017C121.175 289.017 119.852 287.229 120.602 285.607H112.641Z" fill="black"/>
<path fill-rule="evenodd" clip-rule="evenodd" d="M134.254 285.607L130.543 292.425H153.886C153.17 289.877 150.421 288.235 147.536 288.631L144.739 289.017C142.788 289.017 141.465 287.229 142.215 285.607H134.254Z" fill="black"/>
<path fill-rule="evenodd" clip-rule="evenodd" d="M131.311 287.122L118.142 237.697L92.7503 226.521H77.3406L64.8396 209.849L96.2392 212.88L129.435 224.023C132.904 225.187 135.41 227.854 136.028 231.04L146.105 287.122H131.311Z" fill="#1E389D"/>
<path fill-rule="evenodd" clip-rule="evenodd" d="M85.9808 213.11L112.496 225.21C115.649 226.649 117.752 229.37 118.088 232.446L123.627 287.122H109.795L97.6625 233.34L63.8529 226.522C54.8483 226.522 47.5493 220.188 47.5493 212.375V209.849L85.9808 213.11Z" fill="#212293"/>
<path fill-rule="evenodd" clip-rule="evenodd" d="M87.4107 153.279H61.0135C54.1313 153.279 47.7818 156.468 44.3881 161.627L24.7628 187.078C21.8709 190.829 23.5624 195.919 28.3202 197.78L55.6461 208.472L60.8759 198.139L42.8805 191.349C41.0893 190.672 40.4951 188.734 41.667 187.383L48.1281 179.934V212.122H95.3984L91.4022 171.087L110.358 186.284C114.489 189.917 121.533 189.005 124.243 184.487L140.918 156.689L132.599 152.273L117.867 172.893L101.01 158.179C97.4197 155.044 92.5219 153.279 87.4107 153.279Z" fill="#FA7564"/>
<path fill-rule="evenodd" clip-rule="evenodd" d="M93.1327 124.928C93.2328 119.451 87.8328 113.036 80.0156 111.151C72.4777 109.332 64.5069 112.173 60.394 118.142L59.7155 119.126C57.0365 123.015 56.3452 127.754 57.8174 132.133L62.9776 145.849L63.3349 153.98L72.2065 156.819L78.2141 153.98L77.8742 145.22L84.7197 145.202C89.5145 145.142 93.3667 141.619 93.3667 137.302V137.234L93.369 131.419L93.1327 124.928Z" fill="#FBEFE1"/>
<path fill-rule="evenodd" clip-rule="evenodd" d="M96.8272 109.63C96.8272 109.63 83.1345 104.061 69.5347 106.836C67.0608 107.384 64.8373 108.334 62.8842 109.557L60.0822 106.759V111.67C54.8873 116.418 52.9119 123.596 55.795 130.293C57.2119 133.584 60.0822 139.107 62.4338 143.182V131.035L69.3313 129.872L69.4748 121.309C69.4748 121.309 82.4431 121.924 90.5211 116.971L93.1821 121.764C93.1821 121.764 91.3889 112.632 96.8272 109.63Z" fill="black"/>
<path fill-rule="evenodd" clip-rule="evenodd" d="M65.7042 193.94C65.7042 193.103 64.856 192.425 63.81 192.425H55.5059L52.7363 195.455H63.81C64.856 195.455 65.7042 194.777 65.7042 193.94Z" fill="#FBEFE1"/>
<path fill-rule="evenodd" clip-rule="evenodd" d="M66.5687 197.776C66.5687 196.971 65.7815 196.317 64.805 196.308L52.7363 196.213V199.148L64.7716 199.243C65.7604 199.25 66.5687 198.592 66.5687 197.776Z" fill="#FBEFE1"/>
<path fill-rule="evenodd" clip-rule="evenodd" d="M65.7042 201.515C65.7042 200.679 64.856 200.001 63.81 200.001H52.7363V203.031H63.81C64.856 203.031 65.7042 202.353 65.7042 201.515Z" fill="#FBEFE1"/>
<path fill-rule="evenodd" clip-rule="evenodd" d="M73.4848 207.308V206.33C73.4848 205.763 72.906 205.304 72.1922 205.304H65.7041V208.334H72.1922C72.906 208.334 73.4848 207.875 73.4848 207.308Z" fill="#FF63BE"/>
<path fill-rule="evenodd" clip-rule="evenodd" d="M54.7309 205.304H51.0306L47.7894 204.09L47.5493 195.705L47.6957 195.57C49.8819 193.566 52.9369 192.665 56.1676 192.665L56.1946 192.425L54.7309 205.304Z" fill="#FBEFE1"/>
<path fill-rule="evenodd" clip-rule="evenodd" d="M227.37 205.304H64.6998H1.72943V214.615H15.3045L7.93279 292.205H11.4367L30.5808 214.615H64.6998H72.4011L64.0713 301.516H68.0998L89.7932 214.615H174.78L193.924 292.205H197.427L190.056 214.615H199.348L221.042 301.516H225.07L216.74 214.615H227.37V205.304Z" fill="white"/>
<path fill-rule="evenodd" clip-rule="evenodd" d="M118.07 193.94H208.255C211.371 193.94 214.053 192.023 214.67 189.357L225.51 142.45C226.327 138.911 223.23 135.607 219.095 135.607H128.91C125.795 135.607 123.111 137.523 122.495 140.189L111.656 187.098C110.838 190.635 113.935 193.94 118.07 193.94Z" fill="white"/>
<path fill-rule="evenodd" clip-rule="evenodd" d="M184 169.698H156.49L167.747 195.409C168.95 198.155 166.664 201.115 163.341 201.115H146.105V205.304H185.272C192.435 205.304 197.323 198.877 194.635 192.99L184 169.698Z" fill="#B3D2EC"/>
<path fill-rule="evenodd" clip-rule="evenodd" d="M414.242 31.8183H385.444C366.897 31.8183 351.862 44.6302 351.862 60.7272V60.6434C351.862 76.7415 366.897 89.7063 385.444 89.7063H414.242C414.873 89.7063 415.499 89.6536 416.122 89.6236L424.527 96.2125V88.2384C438.041 84.4674 447.824 73.4718 447.824 60.4894V60.7272C447.824 44.6302 432.788 31.8183 414.242 31.8183Z" fill="#FFCA00"/>
<path fill-rule="evenodd" clip-rule="evenodd" d="M395.459 193.94H305.273C302.159 193.94 299.475 192.023 298.859 189.357L288.018 142.45C287.202 138.911 290.299 135.607 294.432 135.607H384.62C387.733 135.607 390.417 137.523 391.033 140.189L401.873 187.098C402.691 190.635 399.593 193.94 395.459 193.94Z" fill="white"/>
<path fill-rule="evenodd" clip-rule="evenodd" d="M330.263 169.698H357.46L346.331 195.409C345.142 198.155 347.402 201.115 350.687 201.115H366.559V205.304H329.006C321.924 205.304 317.093 198.877 319.749 192.99L330.263 169.698Z" fill="#B3D2EC"/>
</svg>
